<?xml version="1.0" encoding="UTF-8"?>
<svg width="140px" height="140px" viewBox="0 0 140 140" version="1.1" xmlns="http://www.w3.org/2000/svg" xmlns:xlink="http://www.w3.org/1999/xlink">
    <!-- Generator: Sketch 62 (91390) - https://sketch.com -->
    <title>newsroom_web_homepage_content-icon1</title>
    <desc>Created with Sketch.</desc>
    <g id="newsroom_web_homepage_content-icon1" stroke="none" stroke-width="1" fill="none" fill-rule="evenodd">
        <g id="Group-9">
            <path d="M140,70 C140,108.66 108.66,140 70,140 C31.34,140 0,108.66 0,70 C0,31.34 31.34,0 70,0 C108.66,0 140,31.34 140,70" id="Fill-1" fill="#E7EDF4"></path>
            <path d="M95.1777,35.4263 L44.5557,35.4263 C37.5347,35.4363 31.8447,41.1253 31.8356969,48.1473 L31.8356969,110.4373 C31.8337,111.6483 32.8147,112.6313 34.0257,112.633303 C34.6867,112.6343 35.3137,112.3363 35.7307,111.8233 L46.3897,98.6633 L95.1777,98.6633 C102.1987,98.6543 107.8887,92.9643 107.8987,85.9423 L107.8987,48.1473 C107.8887,41.1253 102.1987,35.4363 95.1777,35.4263" id="Fill-3" fill="#F3BA64"></path>
            <path d="M71.9321,83.2881 C73.1231,83.1261 74.1131,82.8931 75.2021,82.5171 C80.7251,80.6091 84.7971,75.8971 85.8941,70.1441 C86.1081,69.0261 86.1531,68.4961 86.1531,67.1091 C86.1531,65.7211 86.1081,65.1921 85.8941,64.0731 C84.6371,57.4811 79.5001,52.3451 72.9081,51.0871 C71.7901,50.8731 71.2611,50.8291 69.8731,50.8291 C68.4851,50.8291 67.9561,50.8731 66.8371,51.0871 C60.2451,52.3451 55.1091,57.4811 53.8511,64.0731 C53.6381,65.1921 53.5931,65.7211 53.5931,67.1091 C53.5931,68.4961 53.6381,69.0261 53.8511,70.1441 C55.1861,77.1421 60.9211,82.4901 67.9621,83.3021 C68.8401,83.4031 68.8401,83.4031 70.1061,83.3891 C71.0021,83.3781 71.4521,83.3531 71.9321,83.2881 M68.8921,85.6331 C65.2881,85.4461 61.7191,84.1611 58.8321,82.0111 C58.0571,81.4341 57.4941,80.9461 56.7651,80.2161 C55.2381,78.6891 54.0971,77.0871 53.1761,75.1771 C50.7061,70.0561 50.7061,64.1631 53.1761,59.0411 C54.0971,57.1311 55.2381,55.5291 56.7651,54.0011 C58.2931,52.4741 59.8951,51.3321 61.8051,50.4121 C66.9271,47.9421 72.8191,47.9421 77.9411,50.4121 C79.8501,51.3321 81.4531,52.4741 82.9801,54.0011 C84.5081,55.5291 85.6491,57.1311 86.5701,59.0411 C89.0401,64.1631 89.0401,70.0561 86.5701,75.1771 C85.6491,77.0861 84.5081,78.6881 82.9801,80.2161 C81.7501,81.4461 80.5581,82.3611 79.0801,83.2091 C76.0101,84.9711 72.4511,85.8171 68.8921,85.6331" id="Fill-5" fill="#FDF9F3"></path>
            <path d="M68.4341,59.231 C68.4341,58.098 69.3351,57.168 70.4691,57.168 C71.6021,57.168 72.5331,58.098 72.5331,59.231 C72.5331,60.365 71.6021,61.266 70.4691,61.266 C69.3351,61.266 68.4341,60.365 68.4341,59.231 L68.4341,59.231 Z M69.1901,66.324 L67.2131,66.324 L67.2131,63.94 L72.0681,63.94 L72.0681,77.05 L69.1901,77.05 L69.1901,66.324 Z" id="Fill-7" fill="#FDF9F3"></path>
        </g>
    </g>
</svg>